<svg xmlns="http://www.w3.org/2000/svg" xmlns:xlink="http://www.w3.org/1999/xlink" viewBox="0 0 294 70" width="294" height="70">
    <g fill="none" fill-rule="evenodd">
        <path d="M159.151 37.06h8.497v-4.02h-8.497v4.02zm-4.38-7.651v17.554h4.38v-6.425h5.031l3.44 6.425h4.71l-3.555-6.425h.418c1.351-.082 2.4-1.23 2.373-2.604v-5.939c-.034-1.462-1.23-2.621-2.673-2.587l-.038.001H154.77zm124.671 0c-1.3.009-2.382 1.02-2.497 2.334v5.704c-.02 1.379 1.067 2.513 2.425 2.532H289.423v3.479h-7.999v-1.469h-4.701v2.433c.055 1.393 1.167 2.504 2.542 2.541h12.211c1.36.002 2.463-1.115 2.464-2.493 0-.037 0-.074-.002-.11v-5.47c.03-1.43-1.089-2.61-2.497-2.641h-9.866v-3.235h7.732v1.153h4.382v-2.352c-.058-1.353-1.162-2.417-2.497-2.406h-11.75zm-167.526 0v3.758h6.994v13.796h4.648V33.167h6.994v-3.758h-18.636zm90.837 17.554h4.363V29.41h-4.363v17.554zm9.51-17.554v17.554h4.444V34.861l9.545 12.102h4.94V29.41h-4.532v12.084l-9.34-12.084h-5.057zm50.498 0h-4.506v17.554h15.535V43.36h-11.038l.009-13.95zm-205.058 0v17.554h4.523v-5.938h10.14c1.315.045 2.417-.999 2.462-2.332a2.665 2.665 0 000-.146v-6.552c-.033-1.462-1.23-2.621-2.672-2.587l-.038.001H57.703zm4.63 8.002h8.443v-4.506h-8.443v4.506zm-20.797 2.37l2.933-6.803 2.915 6.803h-5.848zm.045-10.345L34.009 46.99h4.444l1.635-3.793h8.772l1.564 3.766h4.639L47.535 29.41l-5.954.027zm109.075 0v3.605h-12.007v3.604h10.07v3.488h-10.061v3.253h11.998v3.604h-16.424V29.41l16.424.027zM87.449 46.99h3.332l4.657-9.912v9.912h4.16V29.41h-4.942L89.164 42.16 83.67 29.41H78.58v17.554h4.168v-9.912l4.702 9.94zm98.027 0h3.333l4.648-9.912v9.912h4.16V29.41h-4.942l-5.492 12.751-5.493-12.751h-5.066v17.554h4.169v-9.912l4.683 9.94zm56.222-7.209l2.933-6.803 2.915 6.803h-5.848zm.053-10.372l-7.563 17.554h4.444l1.635-3.793h8.772l1.627 3.793h4.638l-7.58-17.554h-5.973zM173.283 65.671v1.09h-6.106V56.607h1.271v9.065zM174.788 66.762h1.56V59.21h-1.56v7.552zm-.137-8.886h1.834v-1.46h-1.834v1.46zM182.846 60.22h-2.667v6.542h-1.217v-6.543h-1.449V59.21h1.449v-.595c0-1.315.524-2.595 2.622-2.595.407-.004.811.057 1.2.18v1.01a4.392 4.392 0 00-1.094-.145c-.942 0-1.51.397-1.51 1.523v.622h2.666v1.01zM185.201 64.536v-4.317h-1.378V59.21h1.378v-1.802l1.227-.352v2.145h2.373v1.01h-2.4v4.28c0 1.19.497 1.334 1.03 1.334a4.8 4.8 0 001.37-.217v1.028a5.16 5.16 0 01-1.511.252c-1.432 0-2.089-.667-2.089-2.352M190.427 66.762H192V59.21h-1.572v7.552zm-.125-8.886h1.834v-1.46h-1.834v1.46zM193.83 59.21h1.05l.097.658c0 .099.045.126.089.126s.107 0 .249-.144a3.715 3.715 0 012.337-.784c1.492 0 2.258.667 2.258 2.226v5.47h-1.237v-5.209c0-1.135-.55-1.406-1.394-1.406a3.73 3.73 0 00-2.232.82v5.795h-1.216V59.21zM206.753 61.625c0-1.19-.444-1.586-1.849-1.586-1.404 0-1.92.424-1.92 1.56 0 1.135.507 1.522 1.894 1.522 1.385 0 1.884-.423 1.884-1.496h-.009zm.498 6.164c0-.685-.321-1-1.129-1.171l-2.534-.514a2.354 2.354 0 00-.889 1.54c0 .902.711 1.29 2.231 1.29 1.716 0 2.329-.298 2.329-1.145h-.008zm-5.742.117a2.813 2.813 0 011.29-2.1 1.197 1.197 0 01-.818-1.117c.017-.497.295-.946.727-1.18a2.332 2.332 0 01-.933-1.929c0-1.802.943-2.514 3.174-2.514.394.007.787.056 1.173.144h2.666l.09.748-1.37.153c.323.41.485.928.453 1.451 0 1.748-.889 2.514-3.066 2.514a4.573 4.573 0 01-1.466-.216.903.903 0 00-.338.676c0 .333.223.487.89.63l2.86.604a1.876 1.876 0 011.609 1.992c0 1.523-1.076 2.19-3.555 2.19-2.48 0-3.386-.649-3.386-2.046zM213.534 61.652c0-3.758 1.359-5.19 4.444-5.19a6.799 6.799 0 012.612.432v1.126a7.139 7.139 0 00-2.541-.414c-2.525 0-3.217 1.19-3.217 3.992 0 3.451 1.127 4.208 2.612 4.208a5.208 5.208 0 002.408-.64v-2.784h-2.106v-1.063h3.316v5.407h-.978l-.116-.523c0-.09-.045-.162-.116-.162a.38.38 0 00-.222.099 4.813 4.813 0 01-2.434.73c-2.169.018-3.662-1.244-3.662-5.218M223.15 65.086v-8.922h1.227v8.75c0 .658.248.901.772.901.249.001.497-.028.738-.09v1.019a3.738 3.738 0 01-1.049.117 1.59 1.59 0 01-1.694-1.482 1.621 1.621 0 01.006-.293M232.473 62.986c0-2.073-.613-2.875-2.133-2.875s-2.133.802-2.133 2.875c0 2.072.604 2.874 2.133 2.874 1.528 0 2.133-.775 2.133-2.874m-5.546 0c0-2.83 1.12-3.92 3.413-3.92 2.293 0 3.403 1.09 3.403 3.92s-1.128 3.902-3.403 3.902c-2.276 0-3.413-1.073-3.413-3.902M240.827 62.896c0-2.154-.578-2.704-1.84-2.704a3.643 3.643 0 00-2.134.739v4.695c.574.195 1.175.29 1.778.28 1.387-.046 2.196-.64 2.196-3.01m-5.2 3.469V56.164h1.226v3.749a4.306 4.306 0 012.437-.847c1.67 0 2.808.73 2.808 3.803 0 3.072-1.031 4.037-3.457 4.037a8.632 8.632 0 01-3.014-.541M248.212 65.166V62.77l-2.168.685c-.996.316-1.226.604-1.226 1.307s.292 1.144 1.101 1.144a4.88 4.88 0 002.293-.739m-4.64-.333c0-1.334.667-1.802 2.338-2.28l2.302-.694v-.378c0-.694-.329-1.343-1.777-1.343a6.154 6.154 0 00-2.364.487v-1.082a6.545 6.545 0 012.541-.486c1.948 0 2.809.9 2.809 2.442v5.253h-1.048l-.09-.64c0-.098 0-.117-.089-.117s-.089 0-.177.09c-.7.49-1.523.772-2.373.812-1.476-.01-2.071-.658-2.071-2.064M251.554 65.086v-8.922h1.227v8.75c0 .658.248.901.763.901.25.002.497-.027.738-.09v1.019a3.732 3.732 0 01-1.048.117 1.59 1.59 0 01-1.686-1.492 1.593 1.593 0 01.006-.283M261.8 57.687h-3.163v-1.081h7.59v1.081h-3.155v9.075H261.8zM266.502 59.21h1.031l.107.757c0 .117.053.162.116.162.062 0 .088 0 .177-.099a3.429 3.429 0 012.214-.964c.128 0 .257.015.381.045v1.144a4.107 4.107 0 00-2.808.902v5.587h-1.218V59.21zM276.278 65.166V62.77l-2.167.685c-.988.316-1.227.604-1.227 1.307s.293 1.144 1.11 1.144a4.803 4.803 0 002.284-.739m-4.63-.333c0-1.334.658-1.802 2.329-2.28l2.301-.694v-.378c0-.694-.32-1.343-1.777-1.343a6.15 6.15 0 00-2.364.487v-1.082a6.51 6.51 0 012.542-.486c1.946 0 2.8.9 2.8 2.442v5.253h-1.05l-.088-.64c0-.098-.044-.117-.09-.117-.044 0-.088 0-.176.09a4.406 4.406 0 01-2.373.812c-1.44-.01-2.054-.658-2.054-2.064M284.562 65.023v-4.506a4.238 4.238 0 00-1.778-.334c-1.52 0-2.168.703-2.168 2.84 0 2.135.737 2.847 1.884 2.847a3.531 3.531 0 002.062-.847m-5.244-2.037c0-2.902 1.244-3.92 3.217-3.92.7-.01 1.395.143 2.027.45v-3.352h1.226v10.598h-1.066l-.09-.64c0-.09 0-.135-.089-.135-.088 0-.052 0-.132.09a3.36 3.36 0 01-2.169.829c-1.635-.018-2.924-.874-2.924-3.92M292.738 61.958a1.656 1.656 0 00-1.388-1.875 1.644 1.644 0 00-.47.001c-1.342 0-1.919.514-2 2.298h3.858v-.424zm1.2 1.325H288.9c.071 1.865.782 2.523 2.293 2.523a5.42 5.42 0 002.506-.622v1.145c-.8.388-1.681.577-2.57.55-2.479 0-3.439-1.289-3.439-4.11 0-2.82 1.121-3.73 3.218-3.73 2.098 0 3.031 1.081 3.031 3.163v1.081z" fill="#FFF" />
        <path fill="#FF6441" d="M53.2 26.6v-5.034L89.6 4.2v6.69zM70 0L12.6 31.54V35L70 6.13zM0 42.44v2.36l30.8-11.803V29.4z" />
    </g>
</svg>