<svg width="24" height="24" viewBox="0 0 24 20" xmlns="http://www.w3.org/2000/svg" xmlns:xlink="http://www.w3.org/1999/xlink"><g fill="#ffffff" fill-rule="evenodd"><path d="M22.5 3.438a.363.363 0 0 0-.431-.082c-.17.086-.545.206-.956.31.417-.478.765-1.057.903-1.569a.362.362 0 0 0-.551-.392c-.279.189-1.585.744-2.395.905-1.006-.882-2.004-1.277-3.213-1.277-.895 0-1.726.247-2.694.798-1.727.984-1.988 3.149-1.84 4.418-4.772-.398-7.446-3.058-8.39-4.21a.36.36 0 0 0-.588.041 4.268 4.268 0 0 0-.503 3.36c.19.73.544 1.37.942 1.872a5.238 5.238 0 0 1-.817-.537.362.362 0 0 0-.586.282c0 2.102 1.417 3.536 2.638 4.245a7.321 7.321 0 0 1-.807-.2.36.36 0 0 0-.431.498c.748 1.614 2.26 2.802 3.934 3.158-1.446.903-3.497 1.354-5.387 1.14a.36.36 0 1 0-.214.676c2.2 1.206 4.486 1.793 6.987 1.793h.016c3.523-.003 6.802-1.51 9.232-4.241 2.202-2.476 3.35-5.615 3.096-8.44.595-.421 1.522-1.235 2.09-2.11a.36.36 0 0 0-.035-.438"></path></g></svg>